<svg width="1000" height="420" viewBox="0 0 1000 420" fill="none" xmlns="http://www.w3.org/2000/svg">
  <rect width="1000" height="420" fill="#0D1117"/>
  <!-- bg rings -->
  <circle cx="820" cy="160" r="280" fill="none" stroke="#F97316" stroke-width="1" stroke-opacity="0.08"/>
  <circle cx="820" cy="160" r="190" fill="none" stroke="#F97316" stroke-width="1" stroke-opacity="0.13"/>
  <!-- left accent bar -->
  <rect x="0" y="0" width="4" height="420" fill="#F97316" opacity="0.6"/>
  <!-- icon -->
  <rect x="56" y="120" width="120" height="120" rx="26" fill="#161B22"/>
  <line x1="116" y1="220" x2="116" y2="196" stroke="rgba(249,115,22,0.5)" stroke-width="6" stroke-linecap="round"/>
  <path d="M116 183 Q92 165 74 138" stroke="rgba(249,115,22,0.5)" stroke-width="6" stroke-linecap="round" fill="none"/>
  <path d="M116 183 Q140 165 158 138" stroke="rgba(249,115,22,0.5)" stroke-width="6" stroke-linecap="round" fill="none"/>
  <circle cx="116" cy="225" r="9" fill="#F97316"/>
  <circle cx="116" cy="183" r="14" fill="#F97316"/>
  <circle cx="74" cy="138" r="10" fill="#F97316"/>
  <circle cx="158" cy="138" r="10" fill="#F97316"/>
  <circle cx="116" cy="183" r="26" fill="none" stroke="#F97316" stroke-width="1" stroke-opacity="0.2" stroke-dasharray="4 5"/>
  <!-- wordmark -->
  <text x="200" y="198" font-family="'Space Grotesk','Helvetica Neue',Arial,sans-serif" font-size="72" font-weight="700" fill="#FFFFFF">Git</text>
  <text x="330" y="198" font-family="'Space Grotesk','Helvetica Neue',Arial,sans-serif" font-size="72" font-weight="400" fill="#F97316">Trek</text>
  <!-- tagline -->
  <text x="201" y="236" font-family="'Space Grotesk','Helvetica Neue',Arial,sans-serif" font-size="16" font-weight="400" fill="rgba(255,255,255,0.35)" letter-spacing="2">FIND ISSUES · TRACK BADGES · CONTRIBUTE</text>
  <!-- divider -->
  <line x1="200" y1="258" x2="620" y2="258" stroke="rgba(255,255,255,0.07)" stroke-width="1"/>
  <!-- subtitle hook -->
  <text x="200" y="296" font-family="'Space Grotesk','Helvetica Neue',Arial,sans-serif" font-size="20" font-weight="500" fill="rgba(255,255,255,0.65)">Checks for competing PRs before you waste 2 hours</text>
  <!-- pills -->
  <rect x="200" y="320" width="130" height="36" rx="8" fill="rgba(249,115,22,0.13)" stroke="rgba(249,115,22,0.32)" stroke-width="1"/>
  <text x="265" y="343" font-family="'Space Grotesk','Helvetica Neue',Arial,sans-serif" font-size="13" font-weight="600" fill="#F97316" text-anchor="middle">Open Source</text>
  <rect x="342" y="320" width="130" height="36" rx="8" fill="rgba(255,255,255,0.05)" stroke="rgba(255,255,255,0.1)" stroke-width="1"/>
  <text x="407" y="343" font-family="'Space Grotesk','Helvetica Neue',Arial,sans-serif" font-size="13" font-weight="400" fill="rgba(255,255,255,0.42)" text-anchor="middle">Free Forever</text>
  <rect x="484" y="320" width="130" height="36" rx="8" fill="rgba(255,255,255,0.05)" stroke="rgba(255,255,255,0.1)" stroke-width="1"/>
  <text x="549" y="343" font-family="'Space Grotesk','Helvetica Neue',Arial,sans-serif" font-size="13" font-weight="400" fill="rgba(255,255,255,0.42)" text-anchor="middle">GraphQL API</text>
  <!-- url -->
  <text x="200" y="393" font-family="'Space Grotesk','Helvetica Neue',Arial,sans-serif" font-size="13" fill="rgba(255,255,255,0.18)">gittrek.vercel.app</text>
</svg>
