<svg width="1280" height="320" viewBox="0 0 1280 320" fill="none" xmlns="http://www.w3.org/2000/svg">
  <rect width="1280" height="320" fill="#0D1117"/>
  <circle cx="1080" cy="80" r="300" fill="none" stroke="#F97316" stroke-width="1" stroke-opacity="0.1"/>
  <circle cx="1080" cy="80" r="200" fill="none" stroke="#F97316" stroke-width="1" stroke-opacity="0.14"/>
  <rect x="60" y="80" width="148" height="148" rx="32" fill="#161B22"/>
  <line x1="134" y1="210" x2="134" y2="175" stroke="rgba(249,115,22,0.45)" stroke-width="7" stroke-linecap="round"/>
  <path d="M134 161 Q107 142 88 112" stroke="rgba(249,115,22,0.45)" stroke-width="7" stroke-linecap="round" fill="none"/>
  <path d="M134 161 Q161 142 180 112" stroke="rgba(249,115,22,0.45)" stroke-width="7" stroke-linecap="round" fill="none"/>
  <circle cx="134" cy="216" r="12" fill="#F97316"/>
  <circle cx="134" cy="161" r="19" fill="#F97316"/>
  <circle cx="88" cy="112" r="13" fill="#F97316"/>
  <circle cx="180" cy="112" r="13" fill="#F97316"/>
  <text x="236" y="170" font-family="'Space Grotesk','Helvetica Neue',Arial,sans-serif" font-size="72" font-weight="700" fill="#FFFFFF">Git</text>
  <text x="397" y="170" font-family="'Space Grotesk','Helvetica Neue',Arial,sans-serif" font-size="72" font-weight="400" fill="#F97316">Trek</text>
  <text x="236" y="210" font-family="'Space Grotesk','Helvetica Neue',Arial,sans-serif" font-size="17" font-weight="400" fill="rgba(255,255,255,0.3)" letter-spacing="2">FIND ISSUES · TRACK BADGES · CONTRIBUTE</text>
  <line x1="236" y1="232" x2="640" y2="232" stroke="rgba(255,255,255,0.06)" stroke-width="1"/>
  <text x="236" y="260" font-family="'Space Grotesk','Helvetica Neue',Arial,sans-serif" font-size="16" fill="rgba(255,255,255,0.2)">gittrek.dev</text>
  <rect x="760" y="116" width="160" height="44" rx="10" fill="rgba(249,115,22,0.13)" stroke="rgba(249,115,22,0.3)" stroke-width="1"/>
  <text x="840" y="143" font-family="'Space Grotesk','Helvetica Neue',Arial,sans-serif" font-size="15" font-weight="600" fill="#F97316" text-anchor="middle">Open Source</text>
  <rect x="934" y="116" width="166" height="44" rx="10" fill="rgba(255,255,255,0.04)" stroke="rgba(255,255,255,0.08)" stroke-width="1"/>
  <text x="1017" y="143" font-family="'Space Grotesk','Helvetica Neue',Arial,sans-serif" font-size="15" font-weight="400" fill="rgba(255,255,255,0.35)" text-anchor="middle">Free Forever</text>
  <rect x="1114" y="116" width="100" height="44" rx="10" fill="rgba(255,255,255,0.04)" stroke="rgba(255,255,255,0.08)" stroke-width="1"/>
  <text x="1164" y="143" font-family="'Space Grotesk','Helvetica Neue',Arial,sans-serif" font-size="15" font-weight="400" fill="rgba(255,255,255,0.35)" text-anchor="middle">v1.0</text>
</svg>
